<?xml version="1.0" standalone="no"?>
<!DOCTYPE svg PUBLIC "-//W3C//DTD SVG 20010904//EN"
 "http://www.w3.org/TR/2001/REC-SVG-20010904/DTD/svg10.dtd">
<svg version="1.0" xmlns="http://www.w3.org/2000/svg"
 width="260.000000pt" height="260.000000pt" viewBox="0 0 260.000000 260.000000"
 preserveAspectRatio="xMidYMid meet">
<metadata>
Created by potrace 1.11, written by Peter Selinger 2001-2013
</metadata>
<g transform="translate(0.000000,260.000000) scale(0.100000,-0.100000)"
fill="#000000" stroke="none">
<path d="M520 2523 c0 -6 -10 -13 -23 -17 -12 -3 -32 -15 -45 -26 -12 -11 -22
-18 -22 -14 0 4 -8 -3 -19 -14 -10 -12 -23 -22 -30 -22 -20 0 -11 -37 12 -47
24 -11 50 -6 41 8 -3 5 0 9 6 9 6 0 8 4 5 10 -3 5 0 7 7 5 8 -3 23 4 35 15 12
11 26 20 31 20 5 0 16 8 26 18 15 18 15 20 -4 42 -11 13 -20 18 -20 13z"/>
<path d="M1210 2520 c0 -5 -12 -10 -27 -10 -14 0 -35 -8 -46 -17 -15 -13 -18
-14 -12 -3 6 11 3 10 -12 -2 -11 -10 -25 -18 -31 -18 -7 0 -12 -3 -12 -8 0 -4
-9 -13 -21 -20 -17 -11 -20 -11 -13 0 6 10 4 10 -9 -1 -14 -11 -17 -11 -17 0
0 11 -2 11 -10 -1 -9 -13 -10 -13 -10 0 0 12 -2 13 -9 1 -7 -11 -9 -11 -14 0
-3 11 -7 11 -18 2 -9 -9 -16 -10 -26 -2 -10 9 -13 8 -13 -2 0 -11 -2 -11 -10
1 -6 9 -10 10 -10 3 0 -6 -8 -12 -17 -11 -29 0 -64 -10 -81 -24 -13 -11 -14
-11 -8 0 7 11 4 11 -13 0 -12 -7 -21 -16 -21 -20 0 -5 -9 -8 -20 -8 -11 0 -20
-7 -20 -15 0 -8 -6 -15 -14 -15 -8 0 -16 -5 -18 -11 -2 -6 -21 -12 -43 -14
-100 -7 -160 -50 -191 -136 -10 -27 -23 -49 -29 -49 -6 0 -17 -6 -24 -12 -6
-7 -17 -13 -24 -13 -7 -1 -11 -6 -10 -12 2 -7 -6 -10 -18 -8 -15 3 -23 -2 -26
-15 -3 -11 -12 -20 -20 -20 -8 0 -12 -4 -8 -9 3 -6 -3 -14 -12 -20 -10 -5 -17
-12 -15 -15 5 -14 1 -27 -7 -21 -6 3 -8 -3 -6 -15 2 -11 0 -22 -5 -25 -10 -6
-10 -117 0 -130 5 -5 10 -19 12 -30 1 -11 10 -26 18 -33 13 -12 13 -13 0 -6
-8 4 3 -10 25 -30 42 -40 101 -71 124 -67 7 1 10 -2 6 -9 -4 -6 -1 -17 5 -25
7 -8 9 -15 5 -15 -4 0 -2 -6 4 -13 6 -8 8 -17 4 -20 -3 -4 15 -7 41 -7 35 0
45 3 40 13 -6 9 -4 9 8 -1 12 -9 18 -10 23 -2 5 8 11 8 19 1 9 -7 16 -7 23 0
8 8 13 8 17 0 5 -8 13 -8 27 -1 11 6 24 8 29 5 9 -6 11 -1 14 43 0 9 6 23 13
30 14 14 37 16 28 2 -3 -5 0 -7 7 -5 8 3 24 -4 36 -15 12 -11 22 -16 22 -10 0
7 5 8 13 3 6 -4 21 -8 32 -8 11 -1 31 -7 44 -14 14 -8 21 -9 17 -2 -5 7 3 11
21 12 15 1 38 3 51 4 12 1 22 -1 22 -5 0 -12 -86 -101 -92 -95 -2 3 -4 -9 -4
-25 0 -20 6 -32 18 -36 10 -3 18 -10 18 -15 0 -5 17 -8 38 -6 37 4 72 -7 72
-22 0 -4 -16 -7 -36 -6 -42 3 -76 -4 -69 -15 9 -14 -19 -5 -49 15 -16 11 -46
38 -68 60 -38 39 -40 39 -53 20 -32 -46 -36 -47 -55 -26 -9 12 -22 21 -29 21
-6 0 -11 5 -11 10 0 19 -39 10 -64 -15 -29 -29 -39 -31 -60 -10 -8 8 -21 15
-28 15 -8 0 -18 4 -24 10 -5 5 -21 10 -34 11 -31 2 -100 -27 -100 -42 0 -5 -5
-7 -10 -4 -6 3 -10 -2 -10 -12 0 -21 35 -55 45 -45 4 4 5 0 3 -8 -8 -36 -47
-26 -90 22 -9 11 -20 20 -25 21 -4 1 -7 5 -6 8 1 4 -9 7 -22 7 -14 0 -22 -4
-20 -9 3 -4 1 -10 -5 -14 -11 -7 7 -45 28 -58 14 -9 16 -47 2 -47 -5 0 -12
-11 -16 -24 -6 -26 -36 -45 -42 -27 -2 7 -10 8 -21 1 -10 -5 -21 -7 -24 -4 -3
3 -14 1 -24 -5 -14 -8 -14 -10 -3 -11 13 0 13 -1 0 -10 -13 -9 -13 -11 0 -20
8 -5 10 -10 4 -10 -6 0 -11 -7 -11 -15 0 -8 4 -15 9 -15 5 0 6 -6 1 -12 -10
-17 -13 -39 -4 -34 4 3 8 -21 9 -52 1 -32 7 -59 14 -64 10 -6 9 -8 -2 -8 -10
0 -11 -3 -4 -8 6 -4 14 -23 17 -42 5 -34 13 -70 18 -80 3 -7 7 -23 8 -38 0 -7
6 -10 13 -6 6 4 8 3 5 -3 -8 -13 17 -96 26 -87 4 4 7 -1 7 -11 0 -10 8 -27 17
-38 10 -12 12 -17 4 -12 -14 8 26 -55 43 -66 5 -4 6 -11 3 -16 -3 -5 3 -16 14
-23 10 -8 19 -20 19 -27 0 -7 5 -13 12 -13 6 0 9 -3 5 -6 -3 -3 5 -16 19 -29
13 -12 24 -25 24 -29 0 -12 38 -44 45 -38 4 4 5 2 3 -4 -3 -12 73 -91 115
-118 15 -10 24 -22 21 -27 -3 -5 2 -9 11 -9 9 0 23 -6 30 -12 34 -31 43 -36
49 -31 3 4 6 1 6 -5 0 -7 7 -12 15 -12 8 0 15 -4 15 -10 0 -5 9 -10 20 -10 11
0 20 -4 20 -10 0 -5 7 -10 15 -10 8 0 15 -4 15 -10 0 -5 9 -10 19 -10 11 0 23
-5 26 -11 4 -6 14 -8 22 -5 8 3 11 2 8 -4 -3 -5 10 -12 30 -16 19 -3 38 -10
41 -15 3 -5 19 -9 35 -9 17 0 28 -4 24 -9 -3 -6 3 -8 15 -6 11 2 22 0 25 -5 3
-5 13 -6 22 -3 9 4 14 2 11 -3 -4 -5 15 -9 42 -9 27 1 47 -2 44 -6 -2 -4 19
-6 46 -5 28 1 50 -2 50 -5 0 -3 19 -5 43 -4 23 1 48 -3 56 -9 11 -8 13 -8 8 1
-5 8 3 12 25 12 69 0 108 5 108 11 0 4 12 6 27 4 15 -1 32 0 38 4 5 4 18 7 28
8 9 1 20 3 25 4 4 1 12 3 17 4 10 2 26 8 73 27 13 5 28 7 33 4 5 -4 9 -1 9 4
0 6 9 11 20 11 11 0 20 5 20 10 0 6 3 9 8 8 15 -4 52 14 52 25 0 7 4 6 10 -3
6 -10 10 -11 10 -2 0 6 6 12 14 12 8 0 16 5 18 12 2 6 11 12 20 14 23 3 88 54
88 68 0 6 5 4 10 -4 6 -9 10 -10 10 -3 0 6 9 15 20 18 11 4 18 9 16 13 -2 4 2
13 10 20 8 7 14 9 14 5 1 -4 15 8 32 27 17 19 27 28 23 20 -4 -8 2 -5 14 7 11
12 21 26 21 30 0 5 9 14 20 21 12 7 18 17 15 22 -3 6 -1 10 4 10 11 0 51 36
51 45 0 3 0 10 0 16 0 5 4 8 8 5 4 -3 17 12 27 32 11 20 30 51 42 68 13 17 23
36 23 43 0 7 5 9 11 5 8 -5 10 1 7 20 -4 18 -1 26 9 26 8 0 12 4 8 9 -3 5 2
17 11 25 8 9 12 16 9 16 -4 0 0 12 10 26 11 18 12 24 4 18 -11 -6 -12 -4 -4 7
18 24 46 117 48 157 0 6 5 12 11 12 6 0 4 5 -4 10 -8 5 -10 10 -5 10 6 0 12
14 13 32 2 18 8 36 15 40 9 6 9 8 -1 8 -8 0 -10 5 -5 13 12 19 12 38 1 31 -7
-4 -8 -2 -4 5 14 22 17 63 5 55 -8 -5 -9 -3 -3 7 13 22 14 42 1 58 -9 12 -9
13 1 7 7 -4 12 -2 12 6 0 8 -6 20 -12 27 -10 11 -10 13 0 7 6 -4 12 -4 12 -1
0 33 -100 41 -122 10 -5 -6 -8 -6 -8 2 0 6 4 14 9 18 9 5 5 54 -5 64 -2 3 -17
-8 -32 -25 -30 -32 -75 -36 -70 -6 2 9 -2 16 -9 15 -7 -2 -10 3 -7 11 3 9 -3
17 -16 21 -34 11 -70 13 -70 5 0 -17 -34 -19 -51 -4 -11 10 -19 15 -19 12 0
-4 -14 7 -31 23 -24 23 -35 27 -49 19 -26 -14 -60 -12 -60 3 0 8 -4 7 -10 -3
-7 -11 -10 -11 -10 -2 0 7 -4 11 -9 8 -14 -9 -20 16 -9 37 6 12 5 19 -7 23 -8
3 -13 10 -10 14 3 5 1 11 -5 15 -6 3 -13 -1 -16 -9 -3 -9 -10 -14 -14 -11 -4
2 -16 -6 -26 -20 -10 -13 -21 -22 -26 -19 -4 3 -8 0 -8 -6 0 -6 -11 -23 -25
-38 -14 -15 -25 -33 -25 -40 0 -9 -6 -12 -16 -8 -8 3 -12 2 -9 -4 4 -6 -7 -10
-25 -10 -18 0 -29 -4 -25 -10 3 -5 -3 -10 -14 -10 -12 0 -21 6 -21 13 0 8 -4
7 -10 -3 -5 -8 -10 -10 -10 -3 0 12 -24 12 -36 0 -12 -12 -22 -8 -20 9 3 20
24 33 47 29 10 -2 21 1 24 6 4 5 11 7 16 4 5 -4 9 -1 9 6 0 7 3 9 7 6 3 -4 15
0 25 10 25 22 25 93 0 100 -10 2 -26 17 -37 33 -11 16 -22 27 -26 25 -3 -3 -5
7 -3 20 1 14 -2 25 -7 25 -5 0 -9 7 -9 15 0 8 3 14 8 14 4 -1 12 0 17 1 6 1
34 1 64 0 42 -1 52 1 46 12 -6 10 -5 10 5 1 13 -12 46 -1 62 22 4 6 8 6 8 1 0
-5 8 -2 17 5 11 10 14 10 9 2 -5 -9 -1 -13 12 -13 15 0 20 -6 18 -25 0 -14 -4
-25 -8 -25 -3 0 -4 -8 -1 -18 5 -21 43 -48 43 -32 0 7 6 7 20 0 15 -8 20 -21
20 -51 0 -24 4 -38 10 -34 6 3 10 -1 10 -10 0 -20 40 -36 56 -21 7 6 10 14 8
18 -2 4 5 9 16 13 11 4 17 11 14 17 -4 7 -2 8 4 4 7 -4 12 -1 12 8 0 9 5 16
11 16 5 0 7 4 4 10 -3 5 0 7 8 4 8 -3 18 -1 22 5 3 6 12 11 18 11 7 0 6 -4 -3
-10 -8 -5 -10 -10 -4 -10 14 0 38 35 49 70 9 28 41 60 62 60 7 0 13 5 13 10 0
6 7 10 15 10 8 0 15 7 15 16 0 8 4 13 9 10 5 -3 14 8 21 24 7 17 16 30 20 30
25 0 29 151 6 188 -4 7 -6 16 -2 19 3 3 0 11 -7 19 -29 32 -33 40 -29 54 3 8
1 12 -3 8 -8 -8 -28 9 -37 33 -3 9 -22 23 -41 32 -32 16 -53 41 -48 60 1 5 -3
6 -8 2 -6 -3 -13 6 -17 20 -3 14 -11 25 -17 25 -6 0 -8 3 -4 6 6 7 -13 30 -26
32 -5 0 -17 10 -26 21 -10 12 -25 21 -34 21 -8 0 -17 7 -21 15 -3 8 -1 15 5
15 6 0 7 5 4 10 -3 6 -2 10 4 10 9 0 27 40 22 49 -2 2 3 8 11 12 10 7 10 9 0
9 -7 0 -11 4 -8 9 4 5 -2 8 -11 6 -10 -2 -22 -4 -26 -4 -5 -1 -6 -5 -3 -10 3
-5 -2 -8 -12 -7 -9 0 -21 7 -25 14 -4 6 -15 12 -23 12 -8 0 -13 -4 -10 -9 4
-5 -3 -7 -14 -4 -11 3 -20 1 -21 -3 0 -5 -2 -17 -4 -26 -2 -10 1 -18 6 -18 6
0 8 -4 4 -9 -3 -5 0 -13 6 -17 9 -5 6 -11 -7 -22 -18 -13 -18 -14 6 -8 21 6
22 5 7 -4 -14 -9 -22 -9 -33 0 -11 10 -14 10 -14 0 0 -9 -4 -9 -17 1 -15 12
-16 12 -8 -1 5 -8 -6 -1 -25 17 -18 18 -37 30 -42 27 -4 -3 -8 -1 -8 4 0 4
-16 16 -36 25 -23 12 -33 13 -28 5 6 -9 3 -9 -9 1 -9 7 -34 14 -56 14 -22 1
-38 5 -35 9 3 4 0 8 -5 8 -6 0 -11 -4 -11 -9 0 -5 -11 -8 -25 -5 -15 2 -31 1
-38 -3 -16 -10 -40 -10 -54 1 -7 5 -13 5 -13 0 0 -5 -4 -3 -9 4 -4 7 -15 14
-23 16 -9 1 -24 8 -34 16 -16 13 -17 13 -9 0 6 -12 5 -13 -6 -2 -7 6 -17 12
-22 12 -4 0 -5 -6 -1 -12 6 -10 4 -10 -7 0 -7 6 -38 12 -69 12 -31 0 -62 -6
-69 -12 -11 -10 -13 -10 -7 0 4 6 2 12 -3 12 -6 0 -11 -4 -11 -10z"/>
<path d="M2470 2490 c0 -5 -6 -7 -14 -4 -21 8 -56 -30 -49 -55 8 -31 31 -47
39 -27 3 9 10 16 16 16 5 0 6 -6 2 -12 -6 -10 -5 -10 8 -1 8 7 18 10 21 6 4
-3 7 -1 7 6 0 7 5 9 10 6 10 -6 15 15 10 45 -3 25 -50 44 -50 20z"/>
<path d="M177 2414 c-10 -19 -15 -39 -12 -44 3 -4 -2 -11 -10 -14 -8 -3 -15
-9 -14 -13 3 -17 -14 -52 -22 -47 -5 3 -6 -2 -3 -10 3 -8 -3 -23 -13 -33 -19
-20 -22 -31 -27 -98 -3 -37 14 -72 28 -58 3 4 30 8 58 10 86 5 109 11 129 32
20 21 26 71 9 71 -5 0 -10 7 -10 15 0 7 -6 18 -13 22 -20 12 -35 61 -18 56 4
-1 8 14 8 33 0 19 -4 34 -9 34 -4 0 -8 5 -8 11 0 14 -39 69 -49 69 -4 0 -15
-16 -24 -36z"/>
<path d="M2460 1889 c0 -5 -4 -7 -10 -4 -5 3 -10 -1 -10 -10 0 -9 -4 -13 -10
-10 -5 3 -10 -1 -10 -9 0 -9 -5 -16 -11 -16 -5 0 -7 -4 -4 -10 3 -5 -3 -20
-14 -32 -12 -12 -21 -25 -21 -30 0 -8 -33 -49 -72 -90 -10 -10 -16 -18 -13
-18 3 0 -3 -9 -12 -20 -10 -11 -23 -20 -30 -20 -7 0 -13 -5 -13 -11 0 -6 -7
-9 -15 -5 -8 3 -15 2 -15 -2 0 -4 -14 -8 -31 -8 -17 -1 -35 -8 -40 -15 -4 -7
-11 -10 -15 -6 -11 11 -34 -13 -34 -35 0 -13 -4 -17 -12 -12 -10 6 -10 4 0 -8
10 -13 10 -17 0 -21 -8 -4 -7 -6 5 -6 9 -1 16 -6 15 -12 -3 -13 61 -18 69 -6
2 4 9 5 14 2 5 -4 9 -2 9 3 0 5 7 9 15 9 8 0 15 -5 15 -11 0 -6 5 -4 10 4 8
13 10 12 10 -2 0 -10 7 -18 16 -18 8 0 13 -4 10 -8 -3 -5 1 -9 9 -9 8 0 15 5
15 10 0 5 9 7 20 4 11 -3 20 -1 20 5 0 5 5 6 10 3 6 -3 10 -1 10 5 0 6 4 9 9
5 5 -3 12 4 16 15 3 11 9 19 13 18 4 -1 18 4 31 11 17 9 21 10 16 1 -6 -9 -2
-9 14 -1 11 7 21 9 21 6 0 -4 7 0 15 9 8 8 15 19 15 25 0 5 7 16 15 24 8 8 16
20 17 27 2 7 16 26 31 43 30 30 30 31 13 142 -1 6 -6 16 -10 24 -7 10 -6 12 4
6 7 -4 3 10 -9 31 -18 32 -28 39 -56 41 -20 2 -35 -2 -35 -8z"/>
<path d="M116 1778 c-10 -5 -20 -8 -23 -5 -5 6 -36 -17 -61 -45 -9 -9 -19 -15
-23 -12 -4 2 -6 -5 -4 -17 3 -13 9 -25 14 -28 5 -3 11 -15 13 -26 1 -11 11
-29 20 -39 10 -10 15 -22 13 -26 -3 -4 4 -15 15 -25 11 -10 18 -21 15 -25 -2
-4 5 -16 15 -28 11 -12 20 -25 20 -30 0 -5 12 -19 27 -33 14 -13 23 -18 19
-11 -4 6 -2 12 4 12 6 0 9 4 6 9 -4 5 -2 11 4 13 14 5 19 51 6 67 -8 11 -8 13
0 8 7 -4 12 2 12 18 0 16 -5 22 -12 18 -8 -5 -8 -3 0 8 13 16 13 57 0 78 -6
10 -5 12 2 7 8 -5 10 -2 6 8 -3 9 -11 16 -16 16 -5 0 -8 6 -6 12 3 7 -4 21
-13 32 -10 10 -17 22 -15 25 9 14 -21 28 -38 19z"/>
</g>
</svg>
