<svg xmlns="http://www.w3.org/2000/svg" width="143" height="40" fill="none" viewBox="0 0 143 40"><path fill="#fff" fill-opacity=".9" d="M54 17.8281V28.8125C53.5208 29.2292 52.8802 29.5781 52.0781 29.8594C51.276 30.1406 50.3021 30.2812 49.1562 30.2812C48.0104 30.2812 47.0365 30.026 46.2344 29.5156C45.3281 28.9635 44.875 28.1823 44.875 27.1719V17.1094H41.2344C40.4844 16.0365 40.1094 14.8646 40.1094 13.5938C40.1094 12.7292 40.2448 11.9792 40.5156 11.3438C40.7969 10.6979 41.1406 10.1979 41.5469 9.84375H57.7031C58.0052 10.3125 58.2552 10.8802 58.4531 11.5469C58.651 12.2135 58.75 12.875 58.75 13.5312C58.75 14.7604 58.4792 15.6667 57.9375 16.25C57.3958 16.8229 56.6667 17.1094 55.75 17.1094H51.1719C51.1406 17.1823 51.125 17.2604 51.125 17.3438C51.125 17.5312 51.2344 17.6562 51.4531 17.7188C51.6823 17.7917 52.1719 17.8281 52.9219 17.8281H54ZM66.5562 9.84375H75.5719C75.874 10.3438 76.0979 10.8906 76.2437 11.4844C76.3896 12.0677 76.4625 12.5938 76.4625 13.0625C76.4625 14.1146 76.2542 14.9062 75.8375 15.4375C75.4312 15.9688 74.8583 16.2344 74.1187 16.2344H67.8219C67.4365 16.2344 67.2437 16.3854 67.2437 16.6875V16.8125C67.2437 16.875 67.2542 16.9167 67.275 16.9375H74.7437C74.9312 17.2604 75.0927 17.6667 75.2281 18.1562C75.3531 18.6875 75.4156 19.1615 75.4156 19.5781C75.4156 20.8177 75.1865 21.7865 74.7281 22.4844H71.3375C69.7542 22.4844 68.6812 22.5469 68.1187 22.6719C67.5562 22.7865 67.2073 22.8854 67.0719 22.9688C66.9365 23.0625 66.8687 23.1823 66.8687 23.3281C66.8687 23.474 66.9417 23.5885 67.0875 23.6719C67.6292 23.4948 68.1969 23.3698 68.7906 23.2969C69.5719 23.224 70.4208 23.1875 71.3375 23.1875H75.7281C76.3635 24.0833 76.6812 25.1615 76.6812 26.4219C76.6812 27.1302 76.5927 27.8073 76.4156 28.4531C76.2385 29.099 75.9729 29.6198 75.6187 30.0156H63.9156C62.624 30.0156 61.5875 29.7031 60.8062 29.0781C59.9521 28.4115 59.525 27.4323 59.525 26.1406V11.2812C59.525 10.7812 60.0979 10.4167 61.2437 10.1875C62.3896 9.95833 64.1604 9.84375 66.5562 9.84375ZM87.3781 19.7344C87.4615 19.8177 87.5917 19.8594 87.7687 19.8594C87.9458 19.8594 88.0969 19.8229 88.2219 19.75C87.951 18.1667 87.7687 17.2292 87.675 16.9375C87.5604 16.6354 87.3885 16.4844 87.1594 16.4844C87.0552 16.4844 86.9302 16.5156 86.7844 16.5781L87.3781 19.7344ZM84.2844 24.4219C84.1802 24.5677 84.1281 24.7031 84.1281 24.8281C84.1281 25.1302 84.4094 25.3854 84.9719 25.5938C85.5448 25.7917 86.2375 25.9167 87.05 25.9688C87.1854 27.4688 87.3312 28.3229 87.4875 28.5312C87.2896 28.9167 86.7427 29.3073 85.8469 29.7031C84.951 30.0885 83.9406 30.2812 82.8156 30.2812C81.326 30.2812 80.05 29.9635 78.9875 29.3281C77.925 28.6823 77.3937 27.8542 77.3937 26.8438C77.3937 26.5729 77.4198 26.3333 77.4719 26.125L80.8 11.25C81.6333 10.7188 82.6281 10.3021 83.7844 10C84.9406 9.69792 86.1437 9.54688 87.3937 9.54688C89.1854 9.54688 90.7167 9.84896 91.9875 10.4531C93.4354 11.1406 94.3156 12.1354 94.6281 13.4375L98.1906 28.1719C97.1073 29.5781 95.3417 30.2812 92.8937 30.2812C91.7062 30.2812 90.701 30.0677 89.8781 29.6406C89.0552 29.2135 88.576 28.6042 88.4406 27.8125L88.0969 25.9062C88.7219 25.8958 89.326 25.776 89.9094 25.5469C90.4927 25.3177 90.7844 25.0781 90.7844 24.8281C90.7844 24.6615 90.7167 24.526 90.5812 24.4219C90.1854 24.7031 89.701 24.9167 89.1281 25.0625C88.5552 25.2083 88.024 25.2812 87.5344 25.2812C86.1281 25.2812 85.0448 24.9948 84.2844 24.4219ZM116.419 30.2812C114.992 30.2812 113.872 30.0469 113.059 29.5781C112.184 29.0885 111.71 28.3958 111.638 27.5L111.497 26.0312C112.455 25.8021 113.263 25.2083 113.919 24.25C114.096 23.9792 114.184 23.7448 114.184 23.5469C114.184 23.276 114.049 23.1406 113.778 23.1406H113.731C113.721 23.151 113.7 23.1562 113.669 23.1562C112.94 24.6875 111.757 25.4531 110.122 25.4531C109.289 25.4531 108.575 25.2708 107.981 24.9062C107.398 24.5417 106.861 23.9115 106.372 23.0156H106.278C105.997 23.0156 105.856 23.1354 105.856 23.375C105.856 23.5417 105.919 23.7292 106.044 23.9375C106.46 24.6354 106.981 25.1823 107.606 25.5781C108.096 25.9115 108.611 26.1094 109.153 26.1719L109.028 29.125C108.403 29.5312 107.742 29.8229 107.044 30C106.356 30.1875 105.372 30.2812 104.091 30.2812C102.82 30.2812 101.684 30.0312 100.684 29.5312C99.4552 28.9167 98.8406 28.0625 98.8406 26.9688C98.8406 25.6042 99.1115 22.2344 99.6531 16.8594C99.9448 14.0573 100.179 12.099 100.356 10.9844C101.429 10.026 103.013 9.54688 105.106 9.54688C106.627 9.54688 107.888 9.82812 108.888 10.3906L109.747 13.2656L109.2 15.5625C109.158 15.7188 109.138 15.8698 109.138 16.0156C109.138 16.3802 109.346 16.5677 109.763 16.5781L111.247 10.4062C111.674 10.1771 112.231 9.97917 112.919 9.8125C113.606 9.63542 114.356 9.54688 115.169 9.54688C116.69 9.54688 117.815 9.80729 118.544 10.3281C119.283 10.8385 119.721 11.7031 119.856 12.9219C119.888 13.151 119.934 13.5312 119.997 14.0625C120.945 22.2083 121.419 27.0052 121.419 28.4531C120.263 29.6719 118.596 30.2812 116.419 30.2812ZM132.678 19.2188C132.678 18.1771 132.631 17.4635 132.537 17.0781C132.444 16.6823 132.272 16.4844 132.022 16.4844C131.866 16.4844 131.725 16.5365 131.6 16.6406C131.621 16.8281 131.652 17.0781 131.694 17.3906C131.735 17.7031 131.756 18.3698 131.756 19.3906V20.4062C131.756 21.1146 131.741 21.6302 131.709 21.9531C131.678 22.276 131.652 22.5521 131.631 22.7812C131.621 22.9062 131.61 23.0312 131.6 23.1562C131.725 23.2604 131.866 23.3125 132.022 23.3125C132.272 23.3125 132.444 23.1198 132.537 22.7344C132.631 22.3385 132.678 21.6198 132.678 20.5781V19.2188ZM132.053 30.5C130.199 30.5 128.496 30.1198 126.944 29.3594C125.402 28.5885 124.157 27.4167 123.209 25.8438C122.261 24.2604 121.787 22.2865 121.787 19.9219C121.787 16.4948 122.819 13.8177 124.881 11.8906C126.715 10.1927 129.074 9.34375 131.959 9.34375C135.095 9.34375 137.574 10.3177 139.397 12.2656C141.23 14.2031 142.147 16.7552 142.147 19.9219C142.147 23.4427 141.168 26.1302 139.209 27.9844C137.428 29.6615 135.043 30.5 132.053 30.5Z"/><path fill="#141414" d="M54 17.8281H54.5V17.3281H54V17.8281ZM54 28.8125L54.3281 29.1898L54.5 29.0403V28.8125H54ZM46.2344 29.5156L46.5029 29.0937L46.4945 29.0886L46.2344 29.5156ZM44.875 17.1094H45.375V16.6094H44.875V17.1094ZM41.2344 17.1094L40.8246 17.3958L40.9738 17.6094H41.2344V17.1094ZM40.5156 11.3438L40.0572 11.1441L40.0557 11.1477L40.5156 11.3438ZM41.5469 9.84375V9.34375H41.3595L41.2183 9.46686L41.5469 9.84375ZM57.7031 9.84375L58.1234 9.5729L57.9757 9.34375H57.7031V9.84375ZM57.9375 16.25L58.3008 16.5935L58.3039 16.5902L57.9375 16.25ZM51.1719 17.1094V16.6094H50.8422L50.7123 16.9124L51.1719 17.1094ZM51.4531 17.7188L51.6047 17.2423L51.5976 17.24L51.5905 17.238L51.4531 17.7188ZM53.5 17.8281V28.8125H54.5V17.8281H53.5ZM53.6719 28.4352C53.2537 28.7989 52.6741 29.1206 51.9127 29.3875L52.2436 30.3312C53.0863 30.0357 53.788 29.6594 54.3281 29.1898L53.6719 28.4352ZM51.9127 29.3875C51.1787 29.6449 50.2641 29.7812 49.1562 29.7812V30.7812C50.3401 30.7812 51.3734 30.6363 52.2436 30.3312L51.9127 29.3875ZM49.1562 29.7812C48.0858 29.7812 47.2095 29.5435 46.5028 29.0938L45.9659 29.9375C46.8634 30.5086 47.935 30.7812 49.1562 30.7812V29.7812ZM46.4945 29.0886C45.7281 28.6217 45.375 27.9975 45.375 27.1719H44.375C44.375 28.3671 44.9281 29.3053 45.9742 29.9426L46.4945 29.0886ZM45.375 27.1719V17.1094H44.375V27.1719H45.375ZM44.875 16.6094H41.2344V17.6094H44.875V16.6094ZM41.6442 16.8229C40.951 15.8313 40.6094 14.7589 40.6094 13.5938H39.6094C39.6094 14.9703 40.0177 16.2416 40.8246 17.3958L41.6442 16.8229ZM40.6094 13.5938C40.6094 12.7801 40.7369 12.0997 40.9756 11.5398L40.0557 11.1477C39.7527 11.8586 39.6094 12.6782 39.6094 13.5938H40.6094ZM40.974 11.5434C41.2344 10.9455 41.5395 10.5135 41.8754 10.2206L41.2183 9.46686C40.7418 9.88231 40.3593 10.4503 40.0572 11.1441L40.974 11.5434ZM41.5469 10.3438H57.7031V9.34375H41.5469V10.3438ZM57.2828 10.1146C57.5538 10.5351 57.7862 11.0572 57.9738 11.6892L58.9324 11.4046C58.7242 10.7032 58.4566 10.0899 58.1234 9.5729L57.2828 10.1146ZM57.9738 11.6892C58.1588 12.3124 58.25 12.926 58.25 13.5312H59.25C59.25 12.824 59.1433 12.1147 58.9324 11.4046L57.9738 11.6892ZM58.25 13.5312C58.25 14.7005 57.9905 15.4582 57.5711 15.9098L58.3039 16.5902C58.9679 15.8752 59.25 14.8203 59.25 13.5312H58.25ZM57.5742 15.9065C57.1425 16.3631 56.5536 16.6094 55.75 16.6094V17.6094C56.7798 17.6094 57.6492 17.2828 58.3008 16.5935L57.5742 15.9065ZM55.75 16.6094H51.1719V17.6094H55.75V16.6094ZM50.7123 16.9124C50.653 17.0507 50.625 17.1962 50.625 17.3438H51.625C51.625 17.3247 51.6282 17.3139 51.6314 17.3063L50.7123 16.9124ZM50.625 17.3438C50.625 17.5419 50.686 17.7419 50.8307 17.9074C50.9682 18.0645 51.1469 18.1513 51.3158 18.1995L51.5905 17.238C51.5406 17.2237 51.5552 17.2167 51.5833 17.2489C51.5979 17.2655 51.6099 17.286 51.6174 17.3075C51.6246 17.328 51.625 17.3417 51.625 17.3438H50.625ZM51.3015 18.1952C51.4746 18.2503 51.7029 18.2806 51.9551 18.2994C52.2168 18.3189 52.5402 18.3281 52.9219 18.3281V17.3281C52.5535 17.3281 52.2571 17.3191 52.0293 17.3022C51.7919 17.2845 51.6609 17.2601 51.6047 17.2423L51.3015 18.1952ZM52.9219 18.3281H54V17.3281H52.9219V18.3281ZM75.5719 9.84375L75.9998 9.58519L75.854 9.34375H75.5719V9.84375ZM76.2437 11.4844L75.7582 11.6036L75.7587 11.6056L76.2437 11.4844ZM75.8375 15.4375L75.444 15.1289L75.4403 15.1338L75.8375 15.4375ZM67.275 16.9375L66.9214 17.2911L67.0679 17.4375H67.275V16.9375ZM74.7437 16.9375L75.1761 16.6864L75.0316 16.4375H74.7437V16.9375ZM75.2281 18.1562L75.7148 18.0417L75.7126 18.0323L75.71 18.023L75.2281 18.1562ZM74.7281 22.4844V22.9844H74.9979L75.1461 22.7588L74.7281 22.4844ZM68.1187 22.6719L68.2186 23.1619L68.2272 23.16L68.1187 22.6719ZM67.0719 22.9688L66.8098 22.5429L66.7983 22.55L66.7873 22.5577L67.0719 22.9688ZM67.0875 23.6719L66.8394 24.106L67.032 24.2161L67.2429 24.1471L67.0875 23.6719ZM68.7906 23.2969L68.7442 22.799L68.7369 22.7997L68.7297 22.8006L68.7906 23.2969ZM75.7281 23.1875L76.136 22.8982L75.9865 22.6875H75.7281V23.1875ZM75.6187 30.0156V30.5156H75.8423L75.9914 30.349L75.6187 30.0156ZM60.8062 29.0781L61.1186 28.6877L61.1139 28.684L60.8062 29.0781ZM66.5562 10.3438H75.5719V9.34375H66.5562V10.3438ZM75.1439 10.1023C75.4187 10.5571 75.6238 11.0567 75.7582 11.6036L76.7293 11.3651C76.572 10.7246 76.3292 10.1304 75.9998 9.58519L75.1439 10.1023ZM75.7587 11.6056C75.8972 12.1599 75.9625 12.6442 75.9625 13.0625H76.9625C76.9625 12.5433 76.8819 11.9756 76.7288 11.3631L75.7587 11.6056ZM75.9625 13.0625C75.9625 14.0615 75.7625 14.7229 75.4441 15.1289L76.2309 15.7461C76.7458 15.0896 76.9625 14.1677 76.9625 13.0625H75.9625ZM75.4403 15.1338C75.1396 15.527 74.7215 15.7344 74.1187 15.7344V16.7344C74.9951 16.7344 75.7229 16.4105 76.2347 15.7412L75.4403 15.1338ZM74.1187 15.7344H67.8219V16.7344H74.1187V15.7344ZM67.8219 15.7344C67.5775 15.7344 67.3021 15.7799 67.0798 15.9541C66.8344 16.1465 66.7437 16.4225 66.7437 16.6875H67.7437C67.7437 16.6644 67.7475 16.6674 67.74 16.6849C67.7362 16.6938 67.7304 16.7044 67.7221 16.7153C67.7138 16.7262 67.7048 16.7348 67.6967 16.7412C67.6805 16.7539 67.6751 16.7518 67.6953 16.7465C67.7164 16.7409 67.7565 16.7344 67.8219 16.7344V15.7344ZM66.7437 16.6875V16.8125H67.7437V16.6875H66.7437ZM66.7437 16.8125C66.7437 16.8679 66.748 16.9379 66.7665 17.0119C66.7842 17.0829 66.8241 17.1937 66.9214 17.2911L67.6286 16.5839C67.7051 16.6605 67.7293 16.7401 67.7366 16.7694C67.7447 16.8017 67.7437 16.8196 67.7437 16.8125H66.7437ZM67.275 17.4375H74.7437V16.4375H67.275V17.4375ZM74.3114 17.1886C74.4713 17.4639 74.6184 17.8275 74.7462 18.2895L75.71 18.023C75.567 17.5059 75.3912 17.0569 75.1761 16.6864L74.3114 17.1886ZM74.7414 18.2708C74.8601 18.7753 74.9156 19.2098 74.9156 19.5781H75.9156C75.9156 19.1132 75.8461 18.5997 75.7148 18.0417L74.7414 18.2708ZM74.9156 19.5781C74.9156 20.7646 74.6949 21.6241 74.3102 22.2099L75.1461 22.7588C75.678 21.9488 75.9156 20.8708 75.9156 19.5781H74.9156ZM74.7281 21.9844H71.3375V22.9844H74.7281V21.9844ZM71.3375 21.9844C69.76 21.9844 68.6341 22.0452 68.0103 22.1838L68.2272 23.16C68.7284 23.0486 69.7484 22.9844 71.3375 22.9844V21.9844ZM68.0189 22.1819C67.7316 22.2405 67.4902 22.2967 67.2987 22.351C67.1218 22.4012 66.9416 22.4618 66.8098 22.5429L67.3339 23.3946C67.329 23.3976 67.3429 23.3889 67.3896 23.3713C67.4331 23.3549 67.4929 23.3354 67.5716 23.3131C67.7291 23.2684 67.9434 23.2179 68.2186 23.1618L68.0189 22.1819ZM66.7873 22.5577C66.5372 22.7307 66.3687 22.995 66.3687 23.3281H67.3687C67.3687 23.3307 67.3684 23.3375 67.366 23.3471C67.3635 23.3569 67.3596 23.3666 67.3548 23.3749C67.3449 23.3924 67.3387 23.3921 67.3565 23.3798L66.7873 22.5577ZM66.3687 23.3281C66.3687 23.6838 66.5661 23.9498 66.8394 24.106L67.3356 23.2378C67.3167 23.227 67.329 23.2294 67.3453 23.255C67.3532 23.2675 67.3597 23.2819 67.3639 23.2968C67.368 23.3115 67.3687 23.3226 67.3687 23.3281H66.3687ZM67.2429 24.1471C67.7523 23.9806 68.2883 23.8623 68.8516 23.7931L68.7297 22.8006C68.1054 22.8773 67.506 23.009 66.9321 23.1966L67.2429 24.1471ZM68.8371 23.7947C69.6006 23.7235 70.4338 23.6875 71.3375 23.6875V22.6875C70.4078 22.6875 69.5432 22.7245 68.7442 22.799L68.8371 23.7947ZM71.3375 23.6875H75.7281V22.6875H71.3375V23.6875ZM75.3203 23.4768C75.8872 24.276 76.1812 25.2493 76.1812 26.4219H77.1812C77.1812 25.0737 76.8399 23.8907 76.136 22.8982L75.3203 23.4768ZM76.1812 26.4219C76.1812 27.0881 76.098 27.7206 75.9334 28.3209L76.8978 28.5853C77.0874 27.894 77.1812 27.1723 77.1812 26.4219H76.1812ZM75.9334 28.3209C75.7716 28.9111 75.537 29.3571 75.2461 29.6822L75.9914 30.349C76.4088 29.8825 76.7055 29.2869 76.8978 28.5853L75.9334 28.3209ZM75.6187 29.5156H63.9156V30.5156H75.6187V29.5156ZM63.9156 29.5156C62.704 29.5156 61.7882 29.2234 61.1186 28.6877L60.4939 29.4686C61.3868 30.1829 62.5439 30.5156 63.9156 30.5156V29.5156ZM61.1139 28.684C60.405 28.1307 60.025 27.3114 60.025 26.1406H59.025C59.025 27.5532 59.4992 28.6922 60.4986 29.4723L61.1139 28.684ZM60.025 26.1406V11.2812H59.025V26.1406H60.025ZM60.025 11.2812C60.025 11.2606 60.0235 11.1817 60.2231 11.0546C60.433 10.9211 60.7922 10.7877 61.3418 10.6778L61.1457 9.69721C60.5495 9.81646 60.0493 9.97994 59.6862 10.211C59.3129 10.4486 59.025 10.8019 59.025 11.2812H60.025ZM61.3418 10.6778C62.4368 10.4588 64.1666 10.3438 66.5562 10.3438V9.34375C64.1542 9.34375 62.3423 9.45788 61.1457 9.69721L61.3418 10.6778ZM87.3781 19.7344L86.8867 19.8268L86.9153 19.9787L87.0246 20.0879L87.3781 19.7344ZM88.2219 19.75L88.4738 20.1819L88.7731 20.0073L88.7147 19.6657L88.2219 19.75ZM87.675 16.9375L88.151 16.7845L88.1471 16.7722L88.1425 16.7602L87.675 16.9375ZM86.7844 16.5781L86.5874 16.1186L86.2189 16.2765L86.293 16.6706L86.7844 16.5781ZM84.2844 24.4219L84.5852 24.0225L84.1756 23.7139L83.8775 24.1313L84.2844 24.4219ZM84.9719 25.5938L84.7982 26.0627L84.8086 26.0663L84.9719 25.5938ZM87.05 25.9688L87.548 25.9238L87.5095 25.4972L87.082 25.4698L87.05 25.9688ZM87.4875 28.5312L87.9323 28.7597L88.0751 28.4814L87.8875 28.2312L87.4875 28.5312ZM85.8469 29.7031L86.0445 30.1624L86.049 30.1605L85.8469 29.7031ZM78.9875 29.3281L78.7278 29.7554L78.7309 29.7572L78.9875 29.3281ZM77.4719 26.125L77.9571 26.2463L77.9598 26.2342L77.4719 26.125ZM80.8 11.25L80.5312 10.8284L80.3571 10.9394L80.3121 11.1408L80.8 11.25ZM91.9875 10.4531L91.7728 10.9047L91.773 10.9048L91.9875 10.4531ZM94.6281 13.4375L94.1419 13.5542L94.1421 13.555L94.6281 13.4375ZM98.1906 28.1719L98.5867 28.477L98.7329 28.2872L98.6766 28.0544L98.1906 28.1719ZM88.4406 27.8125L88.9335 27.7282L88.9327 27.7238L88.4406 27.8125ZM88.0969 25.9062L88.0885 25.4063L87.5004 25.4161L87.6048 25.995L88.0969 25.9062ZM90.5812 24.4219L90.8861 24.0256L90.593 23.8001L90.2916 24.0143L90.5812 24.4219ZM87.0246 20.0879C87.2397 20.3031 87.5249 20.3594 87.7687 20.3594V19.3594C87.7439 19.3594 87.7252 19.3579 87.7119 19.3561C87.6986 19.3543 87.692 19.3523 87.6907 19.3519C87.6894 19.3515 87.6939 19.3528 87.702 19.3576C87.7103 19.3624 87.7209 19.37 87.7317 19.3808L87.0246 20.0879ZM87.7687 20.3594C88.0146 20.3594 88.2569 20.3084 88.4738 20.1819L87.9699 19.3181C87.9368 19.3374 87.877 19.3594 87.7687 19.3594V20.3594ZM88.7147 19.6657C88.4472 18.1016 88.2585 17.1189 88.151 16.7845L87.199 17.0905C87.279 17.3395 87.4549 18.2318 87.729 19.8343L88.7147 19.6657ZM88.1425 16.7602C88.0675 16.5624 87.9575 16.3691 87.7902 16.2221C87.6129 16.0662 87.3952 15.9844 87.1594 15.9844V16.9844C87.1607 16.9844 87.1543 16.9844 87.1443 16.9806C87.1343 16.9768 87.1293 16.9726 87.1301 16.9732C87.1347 16.9773 87.1679 17.0105 87.2075 17.1148L88.1425 16.7602ZM87.1594 15.9844C86.9616 15.9844 86.7661 16.042 86.5874 16.1186L86.9813 17.0377C87.0943 16.9893 87.1489 16.9844 87.1594 16.9844V15.9844ZM86.293 16.6706L86.8867 19.8268L87.8695 19.6419L87.2758 16.4857L86.293 16.6706ZM83.8775 24.1313C83.738 24.3265 83.6281 24.5626 83.6281 24.8281H84.6281C84.6281 24.8437 84.6224 24.8089 84.6912 24.7125L83.8775 24.1313ZM83.6281 24.8281C83.6281 25.1549 83.7868 25.4201 84.0031 25.6164C84.2104 25.8045 84.4878 25.9477 84.7982 26.0626L85.1455 25.1249C84.8934 25.0315 84.749 24.9429 84.6751 24.8758C84.6101 24.8169 84.6281 24.8035 84.6281 24.8281H83.6281ZM84.8086 26.0663C85.4356 26.2829 86.175 26.4137 87.018 26.4677L87.082 25.4698C86.3 25.4196 85.654 25.3004 85.1351 25.1212L84.8086 26.0663ZM86.552 26.0137C86.6202 26.7688 86.6919 27.3724 86.7681 27.8185C86.8061 28.0411 86.8467 28.2337 86.8913 28.3906C86.9313 28.5313 86.9895 28.7006 87.0875 28.8313L87.8875 28.2312C87.9074 28.2577 87.8887 28.2421 87.8532 28.1172C87.8223 28.0085 87.7887 27.8548 87.7538 27.6502C87.6841 27.2422 87.6152 26.6687 87.548 25.9238L86.552 26.0137ZM87.0427 28.3028C86.9948 28.3961 86.8792 28.5343 86.6383 28.7064C86.402 28.8752 86.0743 29.056 85.6448 29.2458L86.049 30.1605C86.5153 29.9544 86.9089 29.742 87.2195 29.5201C87.5255 29.3016 87.7823 29.0518 87.9323 28.7597L87.0427 28.3028ZM85.6493 29.2438C84.8247 29.5986 83.883 29.7812 82.8156 29.7812V30.7812C83.9982 30.7812 85.0774 30.5785 86.0445 30.1624L85.6493 29.2438ZM82.8156 29.7812C81.398 29.7812 80.2146 29.4794 79.2441 28.899L78.7309 29.7572C79.8854 30.4477 81.2541 30.7812 82.8156 30.7812V29.7812ZM79.2472 28.9009C78.294 28.3215 77.8937 27.6375 77.8937 26.8438H76.8937C76.8937 28.0709 77.556 29.0431 78.7278 29.7554L79.2472 28.9009ZM77.8937 26.8438C77.8937 26.6037 77.917 26.4062 77.9569 26.2463L76.9868 26.0037C76.9226 26.2605 76.8937 26.5421 76.8937 26.8438H77.8937ZM77.9598 26.2342L81.2879 11.3592L80.3121 11.1408L76.9839 26.0158L77.9598 26.2342ZM81.0688 11.6716C81.8501 11.1735 82.7947 10.7753 83.9108 10.4838L83.658 9.51624C82.4615 9.82883 81.4166 10.264 80.5312 10.8284L81.0688 11.6716ZM83.9108 10.4838C85.0239 10.1929 86.1844 10.0469 87.3937 10.0469V9.04688C86.1031 9.04688 84.8574 9.20289 83.658 9.51624L83.9108 10.4838ZM87.3937 10.0469C89.1308 10.0469 90.5848 10.3399 91.7728 10.9047L92.2022 10.0016C90.8485 9.35803 89.24 9.04688 87.3937 9.04688V10.0469ZM91.773 10.9048C93.1143 11.5416 93.8718 12.4285 94.1419 13.5542L95.1143 13.3208C94.7595 11.8423 93.7566 10.7396 92.202 10.0015L91.773 10.9048ZM94.1421 13.555L97.7046 28.2894L98.6766 28.0544L95.1141 13.32L94.1421 13.555ZM97.7945 27.8667C96.8385 29.1078 95.2492 29.7812 92.8937 29.7812V30.7812C95.4341 30.7812 97.3761 30.0485 98.5867 28.477L97.7945 27.8667ZM92.8937 29.7812C91.7645 29.7812 90.843 29.5781 90.1084 29.1968L89.6478 30.0844C90.559 30.5573 91.648 30.7812 92.8937 30.7812V29.7812ZM90.1084 29.1968C89.4001 28.8292 89.0382 28.3404 88.9335 27.7282L87.9478 27.8968C88.1139 28.868 88.7103 29.5979 89.6478 30.0844L90.1084 29.1968ZM88.9327 27.7238L88.5889 25.8175L87.6048 25.995L87.9486 27.9012L88.9327 27.7238ZM88.1052 26.4062C88.7901 26.3948 89.4534 26.2632 90.0922 26.0123L89.7265 25.0815C89.1987 25.2889 88.6536 25.3969 88.0885 25.4063L88.1052 26.4062ZM90.0922 26.0123C90.4049 25.8894 90.6788 25.7494 90.883 25.5817C91.0845 25.4162 91.2844 25.1661 91.2844 24.8281H90.2844C90.2844 24.7402 90.3384 24.7349 90.2483 24.8089C90.1608 24.8808 89.9972 24.9752 89.7265 25.0815L90.0922 26.0123ZM91.2844 24.8281C91.2844 24.5017 91.141 24.2216 90.8861 24.0256L90.2764 24.8182C90.2847 24.8245 90.2881 24.8285 90.2887 24.8292C90.2892 24.8298 90.288 24.8284 90.2864 24.8252C90.2848 24.8219 90.284 24.8193 90.2838 24.8183C90.2836 24.8176 90.2844 24.8205 90.2844 24.8281H91.2844ZM90.2916 24.0143C89.9556 24.253 89.5306 24.4441 89.0048 24.578L89.2515 25.547C89.8715 25.3892 90.4152 25.1532 90.8709 24.8295L90.2916 24.0143ZM89.0048 24.578C88.4642 24.7156 87.9748 24.7812 87.5344 24.7812V25.7812C88.0731 25.7812 88.6463 25.7011 89.2515 25.547L89.0048 24.578ZM87.5344 24.7812C86.1871 24.7812 85.2263 24.5055 84.5852 24.0225L83.9835 24.8212C84.8632 25.484 86.0691 25.7812 87.5344 25.7812V24.7812ZM113.059 29.5781L113.309 29.145L113.304 29.1418L113.059 29.5781ZM111.638 27.5L112.136 27.4594L112.135 27.4523L111.638 27.5ZM111.497 26.0312L111.381 25.545L110.958 25.6461L110.999 26.0789L111.497 26.0312ZM113.919 24.25L114.331 24.5326L114.337 24.5236L113.919 24.25ZM113.731 23.1406V22.6406H113.524L113.378 22.7871L113.731 23.1406ZM113.669 23.1562V22.6562H113.353L113.217 22.9413L113.669 23.1562ZM107.981 24.9062L107.716 25.3303L107.72 25.3323L107.981 24.9062ZM106.372 23.0156L106.811 22.7758L106.668 22.5156H106.372V23.0156ZM106.044 23.9375L106.473 23.6812L106.472 23.6803L106.044 23.9375ZM107.606 25.5781L107.888 25.1648L107.881 25.1602L107.874 25.1557L107.606 25.5781ZM109.153 26.1719L109.653 26.193L109.672 25.7285L109.21 25.6752L109.153 26.1719ZM109.028 29.125L109.301 29.5442L109.517 29.4037L109.528 29.1461L109.028 29.125ZM107.044 30L106.921 29.5153L106.912 29.5176L107.044 30ZM99.6531 16.8594L99.1558 16.8076L99.1556 16.8092L99.6531 16.8594ZM100.356 10.9844L100.023 10.6115L99.8904 10.7301L99.8624 10.9059L100.356 10.9844ZM108.888 10.3906L109.367 10.2474L109.309 10.0539L109.133 9.95484L108.888 10.3906ZM109.747 13.2656L110.233 13.3814L110.264 13.2509L110.226 13.1224L109.747 13.2656ZM109.2 15.5625L109.683 15.6914L109.686 15.6783L109.2 15.5625ZM109.763 16.5781L109.75 17.078L110.154 17.0881L110.249 16.695L109.763 16.5781ZM111.247 10.4062L111.01 9.96567L110.813 10.0716L110.761 10.2893L111.247 10.4062ZM112.919 9.8125L113.037 10.2985L113.043 10.2967L112.919 9.8125ZM118.544 10.3281L118.253 10.735L118.26 10.7396L118.544 10.3281ZM119.856 12.9219L119.359 12.9771L119.361 12.9894L119.856 12.9219ZM119.997 14.0625L120.494 14.0047L120.493 14.0041L119.997 14.0625ZM121.419 28.4531L121.781 28.7973L121.919 28.6526V28.4531H121.419ZM116.419 29.7812C115.037 29.7812 114.016 29.5529 113.309 29.145L112.81 30.0112C113.728 30.5409 114.946 30.7812 116.419 30.7812V29.7812ZM113.304 29.1418C112.554 28.7225 112.194 28.1679 112.136 27.4594L111.139 27.5406C111.227 28.6237 111.815 29.4546 112.815 30.0145L113.304 29.1418ZM112.135 27.4523L111.995 25.9836L110.999 26.0789L111.14 27.5477L112.135 27.4523ZM111.613 26.5175C112.713 26.2545 113.618 25.5738 114.331 24.5325L113.506 23.9675C112.907 24.8429 112.197 25.3497 111.381 25.545L111.613 26.5175ZM114.337 24.5236C114.537 24.2182 114.684 23.8858 114.684 23.5469H113.684C113.684 23.6038 113.655 23.7402 113.5 23.9764L114.337 24.5236ZM114.684 23.5469C114.684 23.3344 114.631 23.0832 114.436 22.8886C114.242 22.6941 113.991 22.6406 113.778 22.6406V23.6406C113.806 23.6406 113.809 23.6442 113.798 23.6404C113.784 23.6357 113.756 23.623 113.729 23.5957C113.702 23.5685 113.689 23.5413 113.685 23.5273C113.681 23.5156 113.684 23.5193 113.684 23.5469H114.684ZM113.778 22.6406H113.731V23.6406H113.778V22.6406ZM113.378 22.7871C113.459 22.7053 113.547 22.6772 113.587 22.6673C113.629 22.6566 113.66 22.6562 113.669 22.6562V23.6562C113.709 23.6562 113.766 23.6533 113.829 23.6374C113.89 23.6223 113.993 23.5863 114.085 23.4942L113.378 22.7871ZM113.217 22.9413C112.884 23.6405 112.462 24.1361 111.963 24.4592C111.466 24.7816 110.859 24.9531 110.122 24.9531V25.9531C111.02 25.9531 111.822 25.7418 112.507 25.2986C113.19 24.8561 113.724 24.2032 114.12 23.3712L113.217 22.9413ZM110.122 24.9531C109.363 24.9531 108.744 24.7877 108.243 24.4802L107.72 25.3323C108.406 25.754 109.214 25.9531 110.122 25.9531V24.9531ZM108.246 24.4823C107.763 24.1799 107.278 23.6302 106.811 22.7758L105.933 23.2554C106.445 24.1927 107.033 24.9034 107.716 25.3302L108.246 24.4823ZM106.372 22.5156H106.278V23.5156H106.372V22.5156ZM106.278 22.5156C106.078 22.5156 105.835 22.5565 105.637 22.7248C105.424 22.9063 105.356 23.1553 105.356 23.375H106.356C106.356 23.3629 106.358 23.3747 106.348 23.4C106.337 23.4283 106.316 23.4602 106.286 23.4861C106.257 23.5106 106.234 23.5181 106.23 23.5191C106.228 23.5197 106.242 23.5156 106.278 23.5156V22.5156ZM105.356 23.375C105.356 23.6646 105.463 23.9421 105.615 24.1947L106.472 23.6803C106.374 23.5162 106.356 23.4187 106.356 23.375H105.356ZM105.614 24.1938C106.067 24.9522 106.641 25.5588 107.339 26.0005L107.874 25.1557C107.321 24.8058 106.854 24.3186 106.473 23.6812L105.614 24.1938ZM107.325 25.9914C107.875 26.3663 108.467 26.596 109.096 26.6686L109.21 25.6752C108.756 25.6227 108.316 25.4567 107.888 25.1648L107.325 25.9914ZM108.654 26.1507L108.529 29.1039L109.528 29.1461L109.653 26.193L108.654 26.1507ZM108.756 28.7058C108.175 29.0832 107.564 29.3522 106.921 29.5154L107.167 30.4846C107.92 30.2936 108.631 29.9793 109.301 29.5442L108.756 28.7058ZM106.912 29.5176C106.289 29.6876 105.357 29.7812 104.091 29.7812V30.7812C105.387 30.7812 106.424 30.6874 107.175 30.4824L106.912 29.5176ZM104.091 29.7812C102.887 29.7812 101.83 29.5448 100.908 29.084L100.461 29.9785C101.539 30.5177 102.753 30.7812 104.091 30.7812V29.7812ZM100.908 29.084C99.7963 28.5282 99.3406 27.8213 99.3406 26.9688H98.3406C98.3406 28.3037 99.1141 29.3051 100.461 29.9785L100.908 29.084ZM99.3406 26.9688C99.3406 25.635 99.608 22.2937 100.151 16.9095L99.1556 16.8092C98.6149 22.1751 98.3406 25.5734 98.3406 26.9688H99.3406ZM100.15 16.9111C100.442 14.1087 100.675 12.1626 100.85 11.0628L99.8624 10.9059C99.683 12.0353 99.4474 14.0059 99.1558 16.8076L100.15 16.9111ZM100.689 11.3573C101.637 10.5112 103.08 10.0469 105.106 10.0469V9.04688C102.945 9.04688 101.222 9.54084 100.023 10.6115L100.689 11.3573ZM105.106 10.0469C106.568 10.0469 107.738 10.3175 108.642 10.8264L109.133 9.95484C108.037 9.33873 106.686 9.04688 105.106 9.04688V10.0469ZM108.408 10.5338L109.268 13.4088L110.226 13.1224L109.367 10.2474L108.408 10.5338ZM109.26 13.1498L108.714 15.4467L109.686 15.6783L110.233 13.3814L109.26 13.1498ZM108.717 15.4337C108.665 15.6274 108.638 15.8219 108.638 16.0156H109.638C109.638 15.9177 109.651 15.8101 109.683 15.6913L108.717 15.4337ZM108.638 16.0156C108.638 16.2945 108.72 16.5862 108.959 16.8013C109.186 17.0058 109.479 17.0712 109.75 17.078L109.775 16.0783C109.63 16.0746 109.609 16.0411 109.628 16.058C109.632 16.0619 109.637 16.0666 109.64 16.0716C109.643 16.0765 109.644 16.0796 109.644 16.0793C109.644 16.0783 109.638 16.0602 109.638 16.0156H108.638ZM110.249 16.695L111.733 10.5232L110.761 10.2893L109.276 16.4612L110.249 16.695ZM111.483 10.8468C111.86 10.6446 112.373 10.4592 113.037 10.2984L112.801 9.32657C112.089 9.49911 111.488 9.70952 111.01 9.96567L111.483 10.8468ZM113.043 10.2967C113.685 10.1315 114.392 10.0469 115.169 10.0469V9.04688C114.32 9.04688 113.528 9.13934 112.794 9.3283L113.043 10.2967ZM115.169 10.0469C116.651 10.0469 117.65 10.304 118.253 10.735L118.834 9.92126C117.979 9.3106 116.729 9.04688 115.169 9.04688V10.0469ZM118.26 10.7396C118.841 11.1408 119.234 11.8473 119.359 12.9771L120.353 12.8667C120.208 11.5589 119.726 10.5363 118.828 9.91661L118.26 10.7396ZM119.361 12.9894C119.391 13.2136 119.438 13.5898 119.5 14.1209L120.493 14.0041C120.431 13.4727 120.384 13.0885 120.352 12.8543L119.361 12.9894ZM119.5 14.1203C120.45 22.2833 120.919 27.0421 120.919 28.4531H121.919C121.919 26.9683 121.439 22.1334 120.494 14.0047L119.5 14.1203ZM121.056 28.109C120.02 29.201 118.501 29.7812 116.419 29.7812V30.7812C118.69 30.7812 120.505 30.1428 121.781 28.7973L121.056 28.109ZM132.537 17.0781L132.051 17.1934L132.052 17.1963L132.537 17.0781ZM131.6 16.6406L131.28 16.2565L131.073 16.4286L131.103 16.6958L131.6 16.6406ZM131.709 21.9531L131.212 21.905L131.709 21.9531ZM131.631 22.7812L131.133 22.736L131.133 22.7397L131.631 22.7812ZM131.6 23.1562L131.102 23.1147L131.08 23.3739L131.28 23.5404L131.6 23.1562ZM132.537 22.7344L133.023 22.8526L133.024 22.8496L132.537 22.7344ZM126.944 29.3594L126.72 29.8066L126.724 29.8084L126.944 29.3594ZM123.209 25.8438L122.78 26.1006L122.781 26.1018L123.209 25.8438ZM124.881 11.8906L124.541 11.5238L124.54 11.5253L124.881 11.8906ZM139.397 12.2656L139.032 12.6073L139.034 12.6093L139.397 12.2656ZM139.209 27.9844L139.552 28.3484L139.553 28.3475L139.209 27.9844ZM133.178 19.2188C133.178 18.1814 133.133 17.4112 133.023 16.9599L132.052 17.1963C132.129 17.5159 132.178 18.1728 132.178 19.2188H133.178ZM133.024 16.9629C132.968 16.7257 132.876 16.4895 132.716 16.305C132.54 16.1027 132.3 15.9844 132.022 15.9844V16.9844C132.016 16.9844 132.001 16.9828 131.982 16.9741C131.964 16.9658 131.958 16.9573 131.961 16.9607C131.965 16.9653 131.978 16.9829 131.996 17.0225C132.014 17.0621 132.033 17.1177 132.051 17.1934L133.024 16.9629ZM132.022 15.9844C131.744 15.9844 131.491 16.0808 131.28 16.2565L131.92 17.0247C131.959 16.9921 131.988 16.9844 132.022 16.9844V15.9844ZM131.103 16.6958C131.124 16.8886 131.156 17.1426 131.198 17.4567L132.189 17.3245C132.148 17.0136 132.117 16.7677 132.097 16.5854L131.103 16.6958ZM131.198 17.4567C131.235 17.7302 131.256 18.3623 131.256 19.3906H132.256C132.256 18.3773 132.236 17.676 132.189 17.3245L131.198 17.4567ZM131.256 19.3906V20.4062H132.256V19.3906H131.256ZM131.256 20.4062C131.256 21.1127 131.24 21.6078 131.212 21.905L132.207 22.0013C132.241 21.6527 132.256 21.1165 132.256 20.4062H131.256ZM131.212 21.905C131.18 22.2285 131.154 22.5056 131.133 22.736L132.129 22.8265C132.15 22.5986 132.176 22.3236 132.207 22.0013L131.212 21.905ZM131.133 22.7397C131.128 22.7953 131.122 22.8717 131.117 22.9272C131.116 22.9411 131.111 23.0071 131.11 23.021C131.108 23.0349 131.103 23.1008 131.102 23.1147L132.098 23.1978C132.103 23.1422 132.109 23.0658 132.114 23.0103C132.115 22.9964 132.121 22.9304 132.122 22.9165C132.123 22.9026 132.128 22.8367 132.13 22.8228L131.133 22.7397ZM131.28 23.5404C131.491 23.716 131.744 23.8125 132.022 23.8125V22.8125C131.988 22.8125 131.959 22.8048 131.92 22.7721L131.28 23.5404ZM132.022 23.8125C132.295 23.8125 132.534 23.6995 132.711 23.5008C132.874 23.319 132.967 23.086 133.023 22.8526L132.052 22.6162C132.034 22.6887 132.015 22.7415 131.998 22.7786C131.981 22.8157 131.968 22.8315 131.965 22.8352C131.963 22.8375 131.97 22.8294 131.987 22.8216C132.004 22.8136 132.018 22.8125 132.022 22.8125V23.8125ZM133.024 22.8496C133.133 22.3899 133.178 21.6168 133.178 20.5781H132.178C132.178 21.6228 132.13 22.2871 132.051 22.6191L133.024 22.8496ZM133.178 20.5781V19.2188H132.178V20.5781H133.178ZM132.053 30C130.27 30 128.642 29.6348 127.164 28.9104L126.724 29.8084C128.349 30.6048 130.128 31 132.053 31V30ZM127.167 28.9122C125.716 28.1865 124.54 27.083 123.638 25.5857L122.781 26.1018C123.775 27.7504 125.088 28.9906 126.72 29.8066L127.167 28.9122ZM123.638 25.5869C122.748 24.1002 122.287 22.221 122.287 19.9219H121.287C121.287 22.3519 121.775 24.4207 122.78 26.1006L123.638 25.5869ZM122.287 19.9219C122.287 16.6013 123.283 14.0687 125.223 12.256L124.54 11.5253C122.355 13.5667 121.287 16.3883 121.287 19.9219H122.287ZM125.221 12.2575C126.948 10.6583 129.179 9.84375 131.959 9.84375V8.84375C128.969 8.84375 126.482 9.72707 124.542 11.5238L125.221 12.2575ZM131.959 9.84375C134.983 9.84375 137.32 10.7782 139.032 12.6073L139.762 11.924C137.828 9.85725 135.207 8.84375 131.959 8.84375V9.84375ZM139.034 12.6093C140.763 14.4369 141.647 16.8576 141.647 19.9219H142.647C142.647 16.6529 141.697 13.9693 139.76 11.922L139.034 12.6093ZM141.647 19.9219C141.647 23.3494 140.696 25.8881 138.866 27.6213L139.553 28.3475C141.639 26.3723 142.647 23.536 142.647 19.9219H141.647ZM138.867 27.6203C137.198 29.1916 134.945 30 132.053 30V31C135.14 31 137.658 30.1313 139.552 28.3484L138.867 27.6203Z"/><path fill="#AAA3EB" d="M31.1993 18.901C31.1852 19.6313 31.0271 20.4537 30.6626 21.1587C30.4073 21.6526 30.028 22.1718 29.3425 22.6261C28.9444 22.8899 28.4398 23.0752 27.9505 23.2044C27.4817 23.3283 26.9434 23.3619 26.4087 23.3248C24.7438 23.2046 21.8941 22.1071 19.2538 22.1071C16.3513 22.1071 13.7539 22.9864 12.4854 23.052C11.2829 23.1142 10.3739 22.8851 9.67871 22.4788C9.23107 22.2172 8.55177 21.6318 8.25504 20.7978C8.0588 20.2462 8 19.7978 8 19.1299C8 16.78 9.26743 14.3962 10.1801 13.1863C11.0376 12.0659 12.0709 11.1781 13.2101 10.373C13.9283 9.86547 14.6255 9.42958 15.3105 9.08994C16.1745 8.6615 17.3898 8.24136 18.4913 8.08243C18.9155 8.02124 19.3394 7.99995 19.7457 8C20.4968 8.0001 21.2403 8.10015 21.954 8.28609C22.4944 8.42689 23.0092 8.62027 23.5027 8.82885C24.1565 9.10513 24.7672 9.41459 25.2928 9.72775C26.9243 10.6998 28.3761 11.9925 29.384 13.426C30.6224 15.1874 31.2329 17.1534 31.1993 18.901Z"/><path fill="#FFE1DD" d="M26.2361 26.8249C26.2361 28.2371 25.4969 29.5792 24.8506 30.2065C24.516 30.5313 24.1162 30.7853 23.6748 31.0003C23.2606 31.2021 22.8102 31.3705 22.3363 31.5068C21.2029 31.8328 19.9421 32.0001 18.7205 32.0001C17.9772 32.0001 16.5529 31.9318 15.2611 31.4629C15.0488 31.3859 14.8422 31.2941 14.6417 31.1937C14.4447 31.0951 14.2537 30.9882 14.0734 30.8685C13.7235 30.6361 13.4114 30.3644 13.1652 30.0323C13.058 29.8876 12.9589 29.7355 12.8845 29.5673C12.7759 29.3214 12.6957 29.0408 12.6487 28.7762C12.6141 28.5813 12.5976 28.3599 12.5976 28.1383C12.5976 27.4469 12.7944 26.5499 13.0089 25.6088C13.108 25.1742 13.2135 24.7408 13.3085 24.3053C13.3636 24.0531 13.413 23.8034 13.468 23.5615C13.6076 22.9477 13.7565 22.3306 13.8635 21.7099C13.9027 21.4827 13.9587 21.255 13.9764 21.0245C13.9815 20.9573 13.987 20.8816 13.987 20.8816C14.1204 20.5512 14.8875 20.3621 15.6846 20.3104C16.8574 20.2344 18.3028 20.3158 19.1421 20.3927C20.0032 20.4715 21.2225 20.7268 22.146 20.8264C23.271 20.9477 24.6273 20.9053 24.9685 21.2365C24.9731 21.241 25.027 21.3776 25.0649 21.4889C25.0941 21.5747 25.1322 21.6841 25.1733 21.8118C25.2037 21.9061 25.2458 22.0138 25.282 22.1272C25.4063 22.5167 25.5734 23.0127 25.7084 23.542C25.8182 23.9725 25.9264 24.4296 26.0134 24.877C26.1529 25.5938 26.2361 26.2934 26.2361 26.8249Z"/><path fill="#fff" d="M23.6728 13.8687C23.6728 15.1942 23.2309 16.6239 22.441 17.6236C22.2601 17.8526 22.0577 18.0544 21.8419 18.2325C21.316 18.6663 20.728 18.9347 19.9832 18.9347C19.5938 18.9347 19.1498 18.8843 18.7181 18.7258C18.114 18.5039 17.1365 17.8387 16.8345 17.61C16.3828 17.2681 15.487 16.7059 15.487 15.3612C15.487 15.0712 15.5236 14.7512 15.6175 14.4258C15.869 13.5543 16.4391 12.6082 17.118 11.8246C17.5941 11.2752 18.0934 10.7878 18.6696 10.5118C19.1826 10.2662 19.684 10.2572 20.2131 10.2572C21.3183 10.2572 22.1232 10.6745 22.7013 11.2982C23.3196 11.9653 23.6728 12.8721 23.6728 13.8687Z"/><path fill="#fff" d="M13.1127 16.2978C13.1127 16.5009 13.0839 16.7101 13.0206 16.9198C12.8769 17.3962 12.5843 17.8752 12.2548 18.2911C11.8183 18.842 11.2445 19.3375 10.663 19.3375C10.0988 19.3375 9.52271 18.8622 9.52271 17.3712C9.52271 16.8476 9.61101 16.3448 9.77001 15.8555C9.86117 15.575 9.97642 15.3007 10.1094 15.0251C10.2625 14.7079 10.3861 14.4478 10.5577 14.2759C10.7193 14.1141 10.9373 14.0288 11.1683 14.0288C11.5474 14.0288 11.945 14.2269 12.2934 14.5441C12.7518 14.9613 13.1127 15.59 13.1127 16.2978Z"/><path fill="#fff" d="M30.0022 17.9505C30.0022 18.1418 29.966 18.3509 29.8803 18.548C29.6677 19.0369 29.1813 19.4658 28.4101 19.4658C27.8909 19.4658 27.3887 19.3003 27.0075 18.9522C26.5988 18.579 26.3158 17.9404 26.3038 17.1075C26.2988 16.7573 26.332 16.3788 26.41 16.0269C26.5413 15.4348 26.7788 14.8888 27.0239 14.4673C27.2252 14.1213 27.2841 13.7781 27.6476 13.7781C27.9402 13.7781 28.2642 13.9632 28.5407 14.2705C28.8402 14.6035 29.0893 15.0786 29.3308 15.5868C29.4847 15.9105 29.6117 16.2481 29.7242 16.5824C29.8854 17.0616 30.0022 17.5342 30.0022 17.9505Z"/><path fill="#746EB3" d="M12.5952 21.198C12.6814 21.0482 12.9596 20.8282 13.4401 20.6228C13.9365 20.4107 15.0871 20.0893 16.5426 20.0894C17.2404 20.0894 17.4797 20.1006 17.6763 20.1095C17.8899 20.1192 18.052 20.1289 18.6652 20.1892C20.152 20.3356 22.1742 20.6494 22.7795 20.6849C23.303 20.7157 24.2007 20.8051 24.903 20.8172C25.3626 20.8322 25.6612 20.8032 25.8282 20.7835C25.855 20.7804 25.879 20.7729 25.8992 20.7704C25.9438 20.765 25.9761 20.769 25.9899 20.7704C26.0721 20.7792 26.1542 20.8717 26.1554 20.9807C26.1562 21.0443 26.1356 21.1159 26.0547 21.1735C25.8732 21.3027 24.9394 21.2724 23.6304 21.192C23.3596 21.1753 23.0803 21.1444 22.78 21.1261C21.712 21.061 20.0873 20.7777 18.6652 20.6233C17.7544 20.5243 16.9265 20.5165 16.3807 20.5198C16.0093 20.5221 15.6848 20.5503 15.3973 20.5864C14.9177 20.6465 14.5406 20.7357 14.2178 20.8161C13.4788 21.0002 13.203 21.2366 12.9276 21.4725C12.8982 21.4985 12.8783 21.5097 12.8752 21.5116C12.8628 21.5191 12.7974 21.5397 12.7308 21.5247C12.6792 21.5132 12.6225 21.4812 12.5908 21.414C12.5732 21.3769 12.5689 21.3533 12.5663 21.3178C12.5635 21.278 12.5756 21.232 12.5952 21.198Z"/><circle cx="15.562" cy="23.879" r="1.424" fill="#000"/><circle cx="22.968" cy="23.91" r="1.424" fill="#000"/><path fill="#000" d="M20.9092 24.5203C20.8858 24.5696 20.8506 24.6191 20.8132 24.6689C20.7648 24.7334 20.7055 24.7997 20.6371 24.8552C20.57 24.9097 20.4941 24.9537 20.413 24.9909C20.3022 25.0418 20.1791 25.0705 20.0479 25.0634C20.0096 25.0613 19.9501 25.0607 19.8894 25.0462C19.838 25.0339 19.7868 25.0093 19.7374 24.9885C19.6785 24.9636 19.6275 24.9366 19.5775 24.9009C19.5437 24.8767 19.5082 24.8513 19.4714 24.8232C19.2755 24.6736 19.1396 24.4649 19.1396 24.4649C19.1396 24.4649 19.088 24.5415 19.0115 24.6196C18.963 24.6691 18.8973 24.7183 18.8518 24.7518C18.795 24.7937 18.7351 24.8335 18.6718 24.8645C18.6192 24.8903 18.5638 24.9095 18.5111 24.9237C18.4127 24.9502 18.3188 24.9594 18.2467 24.9594C18.1264 24.9594 18.0103 24.9369 17.9126 24.8872C17.8302 24.8453 17.7579 24.786 17.6964 24.7239C17.5318 24.5578 17.4494 24.3303 17.4494 24.2015C17.4494 24.1421 17.4857 24.0922 17.5344 24.0587C17.5654 24.0373 17.6031 24.03 17.645 24.0297C17.6699 24.0295 17.7073 24.0326 17.7276 24.0406C17.7548 24.0513 17.7724 24.0649 17.7941 24.0892C17.8073 24.104 17.8315 24.1414 17.8376 24.1564C17.8508 24.1887 17.8588 24.2293 17.8739 24.2682C17.8842 24.2946 17.897 24.3227 17.9126 24.3466C17.945 24.3963 17.9845 24.4495 18.033 24.4868C18.0994 24.538 18.1816 24.5618 18.2488 24.56C18.3741 24.5567 18.5732 24.4914 18.7248 24.3274C18.7748 24.2734 18.8294 24.2201 18.8723 24.1575C18.9088 24.1043 18.9355 24.0375 18.9705 23.9936C19.0175 23.9348 19.0739 23.9066 19.1363 23.9066C19.1856 23.9066 19.2282 23.9178 19.2696 23.9461C19.3245 23.9836 19.3623 24.0525 19.3949 24.1089C19.4097 24.1347 19.4336 24.1772 19.4624 24.2196C19.488 24.2572 19.5179 24.2942 19.5439 24.327C19.5959 24.3926 19.6566 24.4535 19.716 24.5002C19.7667 24.54 19.8272 24.5849 19.8785 24.6086C19.9415 24.6378 20.0043 24.6591 20.0567 24.6591C20.1085 24.6591 20.1675 24.65 20.2212 24.6285C20.2899 24.601 20.3532 24.5608 20.4071 24.5101C20.4686 24.4522 20.5151 24.3918 20.5568 24.3174C20.5938 24.2514 20.6031 24.1959 20.6721 24.1563C20.7462 24.1138 20.834 24.1363 20.8995 24.1836C21.0081 24.2622 20.9564 24.4204 20.9092 24.5203Z"/></svg>