<svg fill="none" height="24" viewBox="0 0 75 24" width="75" xmlns="http://www.w3.org/2000/svg"><g fill="#f6a6a6"><path d="m0 23.4761 8.90036-23.050453h4.43374l8.9004 23.050453h-4.171l-1.1138-2.9058h-11.77963l-1.09758 2.9058zm6.61607-6.6917h8.87413l-4.4222-11.61114z"/><path d="m24.8693 23.4761v-16.63299h3.7769v2.16098c.4817-.85129 1.0948-1.50614 1.8392-1.96453.7664-.48022 1.6422-.72033 2.6274-.72033 1.2043 0 2.2224.26194 3.0544.78582.832.52387 1.4232 1.28786 1.7735 2.29195.5036-.96044 1.1714-1.71351 2.0034-2.25921s1.8173-.81856 2.9558-.81856c1.6422 0 2.9121.48022 3.8098 1.44066.9196.93861 1.3794 2.32471 1.3794 4.15821v11.558h-3.8098v-10.8376c0-1.0259-.2189-1.8008-.6568-2.3247s-1.1057-.78583-2.0034-.78583c-.6569 0-1.2261.16371-1.7078.49113-.4817.3274-.8649.8186-1.1495 1.4734-.2628.6548-.3941 1.4516-.3941 2.3902v9.5934h-3.7769v-10.8376c0-1.0259-.2299-1.8008-.6897-2.3247-.4379-.5239-1.0948-.78583-1.9706-.78583-.6569 0-1.2261.16371-1.7078.49113-.4817.3274-.8649.8186-1.1495 1.4734-.2846.633-.427 1.4188-.427 2.3574v9.6262z"/><path d="m51.7726 23.4761v-16.63299h3.8097v16.63299zm-.1971-19.35059v-4.12551h4.171v4.12551z"/><path d="m67.1337 24c-1.7078 0-3.2076-.3711-4.4994-1.1132-1.2699-.764-2.2443-1.8118-2.923-3.1433-.6788-1.3533-1.0182-2.8813-1.0182-4.5839 0-1.6807.3285-3.1869.9853-4.5184.6569-1.33151 1.6203-2.37926 2.8902-3.14325 1.2699-.78581 2.7697-1.17872 4.4994-1.17872 1.6422 0 3.0435.37108 4.2039 1.11324 1.1604.72033 2.0362 1.74625 2.6274 3.07773.5912 1.3097.8867 2.8486.8867 4.6167 0 .3492-.0109.6548-.0328.9168h-12.4145c.1314 1.6152.613 2.8267 1.4451 3.6343.8539.8077 1.9924 1.2115 3.4156 1.2115 1.0948 0 2.0034-.2401 2.7259-.7203.7445-.4803 1.4123-1.1351 2.0034-1.9646l2.5289 1.8663c-.8539 1.2661-1.883 2.2374-3.0872 2.9141s-2.6164 1.015-4.2367 1.015zm3.974-10.543c-.0657-1.3097-.4598-2.3028-1.1824-2.9795-.7225-.69851-1.6749-1.04776-2.8573-1.04776-1.248 0-2.2771.34925-3.0872 1.04776-.7882.6767-1.3027 1.6698-1.5436 2.9795z"/></g></svg>